# xmcd CD database file
#
# Track frame offsets:
#	151
#	20488
#	42145
#	64873
#	87580
#	102150
#	128177
#	154482
#	177885
#	204515
#	229097
#	257307
#	275010
#	297051
#	322289
#
# Disc length: 4587 seconds
#
# Revision: 0
# Processed by: cddbd v1.5.1PL0 Copyright (c) Steve Scherf et al.
# Submitted via: CD2WAV32(EN) R3.19
#
DISCID=d911e90f
DTITLE=???????? - 2000 BEST ????????????
DYEAR=1900
DGENRE=
TTITLE0=??????????
TTITLE1=??????
TTITLE2=??
TTITLE3=???????
TTITLE4=JUMPIN?JACK JIVE
TTITLE5=ORANGE MECHANIC SUISIDE
TTITLE6=ROVER,THE
TTITLE7=????
TTITLE8=??????
TTITLE9=Best Day of My Life,The
TTITLE10=???
TTITLE11=???????
TTITLE12=BLUE TALK
TTITLE13=BODY FRESHER
TTITLE14=DEEP FRENCH KISS
EXTD=
EXTT0=
EXTT1=
EXTT2=
EXTT3=
EXTT4=
EXTT5=
EXTT6=
EXTT7=
EXTT8=
EXTT9=
EXTT10=
EXTT11=
EXTT12=
EXTT13=
EXTT14=
PLAYORDER=
